<svg width="298" height="188" viewBox="0 0 298 188" fill="none" xmlns="http://www.w3.org/2000/svg">
<path fill-rule="evenodd" clip-rule="evenodd" d="M166.879 5.52524C168.65 7.74145 170.083 9.53558 165.138 7.49964C156.524 3.95254 153.24 3.25601 151.294 2.84319C150.642 2.70491 150.14 2.59846 149.638 2.42737C147.638 1.74551 120.345 -0.254179 120.881 2.42735C121.318 4.61292 125.923 6.40995 128.694 7.49141C130.515 8.20195 131.544 8.60359 130.08 8.60359C129.569 8.60359 128.243 8.53725 126.383 8.44424C116.401 7.945 91.0518 6.67718 93.9421 10.7718C94.4139 11.4402 97.6021 13.8661 100.214 15.8536C102.151 17.3271 103.771 18.5597 103.732 18.6564C103.524 19.1776 92.6095 18.1169 84.4203 17.3211C80.0449 16.8958 76.4474 16.5462 75.6762 16.5538C74.492 16.5656 73.1013 16.5211 71.5973 16.473C66.1859 16.3 59.3083 16.0801 55.3078 18.2622C53.1661 19.4304 70.2936 27.7121 72.0625 28.4464C72.2526 28.5253 72.5721 28.6277 72.9365 28.7444C74.4353 29.2246 76.6938 29.9482 73.8365 30.2861C69.1852 30.8363 64.4825 31.1193 59.7915 31.4016C57.7234 31.526 55.6576 31.6503 53.5994 31.7973C53.4438 31.8085 52.9761 31.8165 52.2871 31.8283C47.2049 31.9152 30.0797 32.2084 37.3047 35.4768C37.871 35.733 38.9167 36.0453 40.1405 36.4108C44.521 37.719 51.1827 39.7086 46.3062 42.2444C43.3604 43.7762 40.1089 45.0784 36.818 46.3964C30.7831 48.8134 24.6159 51.2834 19.9587 55.3196C18.7061 56.4051 20.9287 56.7531 23.7275 57.1913C28.899 58.001 36.038 59.1188 26.8576 65.7666C26.5285 66.005 24.8988 66.5628 22.7027 67.3144C14.9389 69.9716 0.0975294 75.0513 10.6286 77.0001C20.4796 78.823 19.1599 79.8484 14.2971 83.6265C12.491 85.0298 10.1961 86.8128 7.8033 89.1575C7.64296 89.4002 7.38709 89.7381 7.08009 90.1434C5.54493 92.1706 2.73122 95.8861 4.18954 97.8305C4.9964 98.9063 6.32813 99.0485 7.6404 99.1885C8.76493 99.3085 9.87518 99.427 10.6286 100.13C13.0342 102.375 10.4225 104.038 7.20331 106.087C4.38737 107.879 1.10667 109.967 0.312966 113C-0.509713 116.144 1.21528 115.779 3.21613 115.356C5.35248 114.904 7.8033 114.385 7.8033 118C7.8033 122.204 5.27409 124.781 3.09312 127.003C1.64252 128.481 0.345981 129.802 0.0501473 131.34C-0.312933 133.228 1.36526 133.502 3.07547 133.782C4.57134 134.026 6.09171 134.275 6.29209 135.611C6.52438 137.159 5.90892 139.696 5.23369 142.48C3.93371 147.838 2.41219 154.11 6.29209 156C13.8412 159.677 30.4599 162.535 48.2462 164.432C55.6001 177.179 66.6581 187.006 81.6141 187.528C84.0461 187.613 83.8652 184.192 83.738 181.787C83.7054 181.171 83.6763 180.621 83.6957 180.214C83.925 175.381 84.9033 171.108 86.424 167.008C95.1145 167.237 102.275 167.118 106.426 166.623C125.189 164.39 142.948 159.381 160.965 154.3C164.194 153.39 167.432 152.477 170.685 151.577C177.824 149.602 184.56 146.788 191.086 143.532C192.099 144.474 193.245 145.434 194.642 146.363C208.919 155.854 225.131 163.018 241.289 153.4C245.358 150.978 241.083 149.094 238.376 147.9L238.351 147.889C227.734 143.208 222.815 137.419 217.441 128.551C221.826 125.968 226.237 123.436 230.739 121.09C248.341 111.917 262.657 98.2826 276.816 84.7971C278.191 83.4881 279.563 82.1806 280.938 80.8787C281.529 80.3185 282.102 79.7795 282.658 79.2565C288.37 73.8807 292.294 70.188 296.138 62.4996C298.099 58.5781 298.754 49.8661 292.138 49.8661C288.745 49.8661 285.764 50.0881 282.916 50.3003C277.583 50.6974 272.717 51.0599 266.483 49.8661C253.802 47.4379 247.528 43.0201 237.036 35.6314C236.74 35.4232 236.441 35.2126 236.138 34.9996C227.22 28.7236 190.638 8.60359 172.138 2.42735C161.593 -1.09342 164.532 2.58689 166.879 5.52524Z" fill="#FF6B6B"/>
</svg>
